<svg width="28" height="28" viewBox="0 0 28 28" fill="none" xmlns="http://www.w3.org/2000/svg">
<path d="M20.7199 23.4849C20.5332 23.6599 20.3116 23.7299 20.1249 23.7182C19.9499 23.7066 19.7749 23.6832 19.5883 23.6482M20.7199 23.4849V23.9849H20.7316H20.8942M20.7199 23.4849L20.7316 23.4973L21.0116 23.796L21.0619 23.8497C21.0615 23.85 21.0612 23.8503 21.0608 23.8507C21.0077 23.9004 20.9519 23.9452 20.8942 23.9849M20.7199 23.4849L20.8942 23.9849M20.8942 23.9849C20.6463 24.1557 20.3624 24.234 20.0937 24.2173L20.0917 24.2171C19.8952 24.204 19.7015 24.1781 19.4997 24.1403M20.8942 23.9849H20.9235L21.0661 23.8565C21.5481 23.4227 21.8032 22.6997 21.8032 21.9916C21.8032 21.7076 21.7606 21.4408 21.6917 21.1927L21.6883 21.1805L21.6843 21.1684C21.6203 20.9765 21.5347 20.7568 21.3972 20.5429L21.3749 20.5082L21.3472 20.4776C20.2479 19.2638 19.2494 17.9329 18.3642 16.5534L20.8942 23.9849ZM19.4997 24.1403C19.5009 24.1406 19.5021 24.1408 19.5033 24.141L19.5883 23.6482M19.4997 24.1403C19.4985 24.1401 19.4973 24.1399 19.4961 24.1397L19.5883 23.6482M19.4997 24.1403C18.0343 23.887 17.2363 23.3194 16.5203 22.8063L16.5198 22.8059C15.777 22.2721 15.1102 21.8032 13.9999 21.8032C12.8897 21.8032 12.2228 22.2721 11.4801 22.8059L11.4795 22.8063L11.457 22.8224C10.7508 23.3287 9.95159 23.9015 8.49803 24.1407M19.5883 23.6482C18.2349 23.4149 17.5116 22.9016 16.8116 22.3999L8.50373 24.1397C8.50183 24.14 8.49993 24.1404 8.49803 24.1407M8.49803 24.1407C8.30127 24.1774 8.11249 24.2029 7.93225 24.2162M8.49803 24.1407L7.93225 24.2162M7.93225 24.2162C7.55478 24.2561 7.20966 24.0935 6.94961 23.8497C6.47704 23.408 6.21992 22.6919 6.21992 21.9916C6.21992 21.4592 6.36657 20.9331 6.57479 20.5967L6.5982 20.5589L6.62793 20.5258C7.74151 19.2859 8.76376 17.9421 9.65967 16.5523L9.66 16.5518C10.2675 15.612 10.8305 14.6125 11.3254 13.6342L11.3346 13.6161L11.3452 13.5987C11.6562 13.091 12.1238 12.5279 12.7936 12.22C13.4891 11.9003 14.3288 11.8895 15.2903 12.3595C15.8402 12.6208 16.3435 13.1156 16.7674 13.7265L16.7878 13.7559L16.8038 13.788C17.2756 14.7317 17.792 15.6607 18.3641 16.5532L7.93225 24.2162ZM21.9847 20.0635L21.9861 20.0626C22.1632 20.3436 22.299 20.6398 22.3864 20.941C22.4784 21.2577 22.5299 21.6075 22.5299 21.9566C22.5299 22.9346 22.154 23.8296 21.5514 24.3738L21.5511 24.3741C21.1452 24.7414 20.6558 24.9332 20.1716 24.9332H20.1712H20.1708H20.1704H20.1699H20.1695H20.1691H20.1687H20.1683H20.1679H20.1675H20.1671H20.1666H20.1662H20.1658H20.1654H20.165H20.1646H20.1642H20.1637H20.1633H20.1629H20.1625H20.1621H20.1617H20.1612H20.1608H20.1604H20.16H20.1596H20.1592H20.1587H20.1583H20.1579H20.1575H20.1571H20.1567H20.1562H20.1558H20.1554H20.155H20.1546H20.1541H20.1537H20.1533H20.1529H20.1525H20.152H20.1516H20.1512H20.1508H20.1503H20.1499H20.1495H20.1491H20.1487H20.1482H20.1478H20.1474H20.147H20.1465H20.1461H20.1457H20.1453H20.1448H20.1444H20.144H20.1436H20.1431H20.1427H20.1423H20.1419H20.1414H20.141H20.1406H20.1401H20.1397H20.1393H20.1389H20.1384H20.138H20.1376H20.1371H20.1367H20.1363H20.1359H20.1354H20.135H20.1346H20.1341H20.1337H20.1333H20.1329H20.1324H20.132H20.1316H20.1311H20.1307H20.1303H20.1298H20.1294H20.129H20.1285H20.1281H20.1277H20.1272H20.1268H20.1264H20.1259H20.1255H20.1251H20.1247H20.1242H20.1238H20.1233H20.1229H20.1225H20.122H20.1216H20.1212H20.1207H20.1203H20.1199H20.1194H20.119H20.1186H20.1181H20.1177H20.1173H20.1168H20.1164H20.116H20.1155H20.1151H20.1146H20.1142H20.1138H20.1133H20.1129H20.1125H20.112H20.1116H20.1111H20.1107H20.1103H20.1098H20.1094H20.109H20.1085H20.1081H20.1076H20.1072H20.1068H20.1063H20.1059H20.1054H20.105H20.1046H20.1041H20.1037H20.1033H20.1028H20.1024H20.1019H20.1015H20.1011H20.1006H20.1002H20.0997H20.0993H20.0989H20.0984H20.098H20.0975H20.0971H20.0967H20.0962H20.0958H20.0953H20.0949H20.0944H20.094H20.0936H20.0931H20.0927H20.0922H20.0918H20.0914H20.0909H20.0905H20.09H20.0896H20.0891H20.0887H20.0883H20.0878H20.0874H20.0869H20.0865H20.086H20.0856H20.0852H20.0847H20.0843H20.0838H20.0834H20.0829H20.0825H20.0821H20.0816H20.0812H20.0807H20.0803H20.0798H20.0794H20.079H20.0785H20.0781H20.0776H20.0772H20.0767H20.0763H20.0759H20.0754H20.075H20.0745H20.0741H20.0736H20.0732H20.0727H20.0723H20.0719H20.0714H20.071H20.0705H20.0701H20.0696H20.0692H20.0687H20.0683H20.0679H20.0674H20.067H20.0665H20.0661H20.0656H20.0652H20.0647H20.0643H20.0639H20.0634H20.063H20.0625H20.0621H20.0616H20.0612H20.0608H20.0603H20.0599H20.0594H20.059H20.0585H20.0581H20.0576H20.0572H20.0568H20.0563H20.0559H20.0554H20.055H20.0545H20.0541H20.0536H20.0532H20.0528H20.0523H20.0519H20.0514H20.051H20.0505H20.0501H20.0496H20.0492H20.0488H20.0483H20.0479H20.0474H20.047H20.0465H20.0461H20.0457H20.0452H20.0448H20.0443H20.0439H20.0434H20.043H20.0425H20.0421H20.0417H20.0412H20.0408H20.0403H20.0399H20.0394H20.039H20.0386H20.0381H20.0377H20.0372H20.0368H20.0363H20.0359H20.0355H20.035H20.0346H20.0341H20.0337H20.0332H20.0328H20.0324H20.0319H20.0315H20.031H20.0306H20.0301H20.0297H20.0293H20.0288H20.0284H20.0279H20.0275H20.0271H20.0266H20.0262H20.0257H20.0253H20.0249H20.0244H20.024H20.0235H20.0231H20.0226H20.0222H20.0218H20.0213H20.0209H20.0204H20.02H20.0196H20.0191H20.0187H20.0182H20.0178H20.0174H20.0169H20.0165H20.0161H20.0156H20.0152H20.0147H20.0143H20.0139H20.0134H20.013H20.0125H20.0121H20.0117H20.0112H20.0108H20.0104H20.0099H20.0095H20.009H20.0086H20.0082H20.0077H20.0073H20.0069H20.0064H20.006H20.0055H20.0051H20.0047H20.0042H20.0038H20.0034H20.0029H20.0025H20.0021H20.0016H20.0012H20.0008H20.0003H19.9999H19.9995H19.999H19.9986H19.9982H19.9977H19.9973H19.9969H19.9964H19.996H19.9956H19.9951H19.9947H19.9943H19.9938H19.9934H19.993H19.9925H19.9921H19.9917H19.9912H19.9908H19.9904H19.9899H19.9895H19.9891H19.9886H19.9882H19.9878H19.9874H19.9869H19.9865H19.9861H19.9856H19.9852H19.9848H19.9844H19.9839H19.9835H19.9831H19.9826H19.9822H19.9818H19.9814H19.9809H19.9805H19.9801H19.9796H19.9792H19.9788H19.9784H19.9779H19.9775H19.9771H19.9767H19.9762H19.9758H19.9754H19.975H19.9745H19.9741H19.9737H19.9733H19.9729H19.9724H19.972H19.9716H19.9712H19.9707H19.9703H19.9699H19.9695H19.969H19.9686H19.9682H19.9678H19.9674H19.9669H19.9665H19.9661H19.9657H19.9653H19.9648H19.9644H19.964H19.9636C19.7769 24.9226 19.5854 24.8928 19.365 24.858C17.7422 24.5871 16.8522 23.9495 16.0885 23.4023L16.079 23.3955L16.0761 23.3934L16.0727 23.3909C15.44 22.9308 14.8888 22.5299 13.9883 22.5299C13.0877 22.5299 12.5365 22.9308 11.9038 23.3909L11.9004 23.3934L11.8975 23.3955L11.888 23.4024C11.1243 23.9495 10.2343 24.5871 8.61152 24.858C8.4248 24.8874 8.2376 24.9081 8.04562 24.9294C8.02565 24.9316 8.00562 24.9338 7.98554 24.936C7.45145 24.9897 6.89091 24.8009 6.43931 24.3879C5.84335 23.8405 5.45825 22.9423 5.45825 21.9682C5.45825 21.2681 5.65854 20.5964 6.00768 20.0703C7.15714 18.7776 8.14568 17.4821 9.01814 16.1264C9.61298 15.2102 10.1583 14.2378 10.6544 13.2573L10.671 13.2245L10.673 13.2185L10.6826 13.2039L10.6878 13.1962L10.6926 13.1883C11.1521 12.4402 11.8228 11.7903 12.6424 11.463C13.4466 11.1418 14.4379 11.1125 15.6023 11.6734C16.25 11.9872 16.8614 12.5343 17.4051 13.3359C17.406 13.3377 17.4072 13.3399 17.4085 13.3427C17.409 13.3436 17.4095 13.3446 17.41 13.3457C17.4162 13.3581 17.4291 13.3841 17.4473 13.4146C17.907 14.3439 18.4141 15.2512 18.9804 16.1361L18.9811 16.1371C19.859 17.5014 20.8554 18.8063 21.947 20.0164L21.9556 20.026L21.9581 20.0285C21.9597 20.0306 21.9634 20.0352 21.969 20.0429C21.9737 20.0493 21.978 20.0554 21.981 20.0597L21.9839 20.0639L21.9839 20.064L21.9847 20.0635Z" fill="white" stroke="white"/>
<path d="M8.63325 10.2315C9.02991 10.3831 9.42658 10.4648 9.82325 10.4648C10.3249 10.4648 10.8149 10.3365 11.2466 10.0915C12.0049 9.64813 12.5299 8.8548 12.6816 7.89813C12.8216 6.9998 12.6232 6.04313 12.1332 5.20313C11.0832 3.3948 8.98325 2.63646 7.45491 3.52313C5.92658 4.4098 5.52991 6.60313 6.56825 8.41146C7.05825 9.26313 7.79325 9.9048 8.63325 10.2315ZM8.32991 5.0398C8.49325 4.94646 8.67991 4.8998 8.86658 4.8998C9.48491 4.8998 10.1849 5.3548 10.6049 6.07813C10.8966 6.5798 11.0132 7.1398 10.9316 7.64146C10.8966 7.88646 10.7682 8.34146 10.3599 8.5748C9.95158 8.80813 9.49658 8.69146 9.26325 8.59813C8.79658 8.41146 8.36491 8.02646 8.08491 7.53646C7.53658 6.5798 7.64158 5.43646 8.32991 5.0398Z" fill="white"/>
<path d="M16.205 10.0916C16.6366 10.3482 17.1266 10.4649 17.6166 10.4649C18.8533 10.4649 20.1366 9.70656 20.8833 8.41156C21.3733 7.5599 21.56 6.60323 21.4316 5.71656C21.2916 4.7599 20.7666 3.96656 19.9966 3.52323C19.2383 3.0799 18.2816 3.03323 17.3833 3.38323C16.5433 3.7099 15.8083 4.36323 15.3183 5.20323C14.2683 7.01156 14.665 9.20489 16.205 10.0916ZM16.835 6.07823C17.1266 5.57656 17.5583 5.19156 18.0133 5.01656C18.1416 4.9699 18.3516 4.8999 18.5733 4.8999C18.7483 4.8999 18.935 4.9349 19.11 5.0399C19.5183 5.27323 19.6466 5.72823 19.6816 5.97323C19.7633 6.46323 19.635 7.0349 19.355 7.53656C18.8066 8.49323 17.7566 8.97156 17.0683 8.57489C16.38 8.17823 16.275 7.0349 16.8233 6.07823H16.835Z" fill="white"/>
<path d="M24.1616 10.43C23.5316 10.0683 22.75 10.0216 22.015 10.3133C21.3383 10.5816 20.755 11.095 20.3583 11.7716C19.5183 13.23 19.845 15.015 21.105 15.7383C21.4666 15.9483 21.8633 16.0416 22.2716 16.0416C23.275 16.0416 24.3133 15.435 24.92 14.3966C25.76 12.9383 25.4333 11.1533 24.1733 10.43H24.1616ZM23.3916 13.5216C23.0416 14.1283 22.3766 14.455 21.98 14.2216C21.5716 13.9883 21.525 13.2533 21.875 12.6466C22.0616 12.32 22.3533 12.0633 22.6566 11.9466C22.7383 11.9116 22.855 11.8766 22.995 11.8766C23.0883 11.8766 23.1933 11.9 23.2866 11.9466C23.695 12.18 23.7416 12.915 23.3916 13.5216Z" fill="white"/>
<path d="M6.9883 15.7266C8.23663 15.0032 8.57497 13.2299 7.73497 11.7599C6.89497 10.3016 5.17997 9.69491 3.93163 10.4182C2.6833 11.1416 2.34497 12.9149 3.18497 14.3849C3.77997 15.4232 4.82997 16.0299 5.82163 16.0299C6.22997 16.0299 6.62663 15.9366 6.9883 15.7266ZM4.70163 13.5099C4.35163 12.9032 4.3983 12.1682 4.80663 11.9349C4.89997 11.8882 4.9933 11.8649 5.10997 11.8649C5.49497 11.8649 5.94997 12.1682 6.22997 12.6349C6.57997 13.2416 6.5333 13.9766 6.12497 14.2099C5.71663 14.4432 5.0633 14.1166 4.7133 13.5099H4.70163Z" fill="white"/>
</svg>
